<svg xmlns="http://www.w3.org/2000/svg" xmlns:xlink="http://www.w3.org/1999/xlink" viewBox="0 0 250.083 63.622">
  <defs>
    <style>
      .cls-1, .cls-5 {
        fill: none;
      }

      .cls-2 {
        clip-path: url(#clip-path);
      }

      .cls-3 {
        fill: #ff542e;
      }

      .cls-3, .cls-4 {
        fill-rule: evenodd;
      }

      .cls-4 {
        fill: #0081c2;
      }

      .cls-5 {
        stroke: #fff;
        stroke-miterlimit: 22.926;
        stroke-width: 0.216px;
      }
    </style>
    <clipPath id="clip-path">
      <path id="Path_33" data-name="Path 33" class="cls-1" d="M0-152.266H250.083v63.622H0Z" transform="translate(0 152.266)"/>
    </clipPath>
  </defs>
  <g id="Group_571" data-name="Group 571" transform="translate(0 152.266)">
    <g id="Group_368" data-name="Group 368" class="cls-2" transform="translate(0 -152.266)">
      <g id="Group_341" data-name="Group 341" transform="translate(30.138 12.32)">
        <path id="Path_3" data-name="Path 3" class="cls-3" d="M-9.681-46.148a16.3,16.3,0,0,0,10.87-3.709,12.3,12.3,0,0,0,4.305-9.8A16.211,16.211,0,0,0,1.551-70.894C-.964-73.771-4.672-75.2-8.978-75.2h-.7Zm-5.627-6.8V-68.379c0-2.281-.234-4.561-.362-5.989-.235-1.428-.6-3.218-.959-4.9h6.224c6.692,0,12.085,1.79,15.9,5.136,4.071,3.474,5.989,8.142,5.989,13.769,0,5.5-1.79,10.039-5.392,13.279-3.581,3.218-8.973,4.9-15.069,4.9h-7.651c.362-1.449.724-3.24.959-4.668.128-1.556.362-3.708.362-6.1" transform="translate(16.629 79.27)"/>
      </g>
      <g id="Group_342" data-name="Group 342" transform="translate(0 0)">
        <path id="Path_4" data-name="Path 4" class="cls-4" d="M-71.331-82.17a61.06,61.06,0,0,1-9.8,3.815,61.193,61.193,0,0,1-10.167.831c-8.973,0-16.518-2.984-22.252-8.483a29.851,29.851,0,0,1-8.973-21.889,31.924,31.924,0,0,1,9.8-23.552c6.692-6.458,15.3-9.7,25.236-9.7a38.337,38.337,0,0,1,6.949.6c2.025.6,4.9,1.428,8.12,2.281v11.722c-2.984-1.812-5.861-3.474-8.12-4.071a36.543,36.543,0,0,0-8.5-1.193,18.029,18.029,0,0,0-13.875,6.458c-3.709,4.071-5.734,9.911-5.734,16.263,0,6.458,1.683,11.723,5.137,15.794a18.187,18.187,0,0,0,13.641,6.458,32.377,32.377,0,0,0,9.57-1.449,26.626,26.626,0,0,0,8.973-5.606Z" transform="translate(122.527 141.146)"/>
      </g>
      <g id="Group_343" data-name="Group 343" transform="translate(192.209 36.127)">
        <path id="Path_5" data-name="Path 5" class="cls-4" d="M-11.671-2.167a2.287,2.287,0,0,1-1.322.959,2.267,2.267,0,0,0-.959-.959A2.691,2.691,0,0,0-15.38-2.53a1.407,1.407,0,0,0-.853.234.662.662,0,0,0-.341.6.777.777,0,0,0,.469.6,4.772,4.772,0,0,0,1.193.362c.831.234,1.556.469,2.047.6a6.262,6.262,0,0,1,1.3.831,3.889,3.889,0,0,1,1.322,3.005,4.117,4.117,0,0,1-1.322,3.112,5.27,5.27,0,0,1-1.556.831,13.052,13.052,0,0,1-2.153.234,7.1,7.1,0,0,1-3.453-.831,2.893,2.893,0,0,1-1.322-2.387,2.837,2.837,0,0,1,.831-1.918,2.933,2.933,0,0,1,.959.362c.235.234.725.469.959.7-.362.128-.725.363-.725.491a.957.957,0,0,0-.235.6,1.594,1.594,0,0,0,.725,1.3,4.721,4.721,0,0,0,2.024.49,5.02,5.02,0,0,0,2.153-.362,3.028,3.028,0,0,0,.6-.469,1.7,1.7,0,0,0,.234-.725A1.6,1.6,0,0,0-13.355,3.8a13.378,13.378,0,0,0-1.918-.6A19.564,19.564,0,0,1-17.3,2.5a3.2,3.2,0,0,1-1.087-.618A3.149,3.149,0,0,1-19.579-.5,2.956,2.956,0,0,1-18.492-3.02a5.1,5.1,0,0,1,2.856-.7,6.428,6.428,0,0,1,2.408.362,3.008,3.008,0,0,1,1.556,1.3Z" transform="translate(20.048 3.723)"/>
      </g>
      <g id="Group_344" data-name="Group 344" transform="translate(183.001 36.361)">
        <path id="Path_6" data-name="Path 6" class="cls-4" d="M-11.671-15.5h-8.376V-26.628h8.121l.255,1.194H-16.1v.959h4.668l-.49,1.428a4.576,4.576,0,0,0-1.3-.234H-16.1V-16.7h4.433Z" transform="translate(20.047 26.628)"/>
      </g>
      <g id="Group_345" data-name="Group 345" transform="translate(171.875 36.361)">
        <path id="Path_7" data-name="Path 7" class="cls-4" d="M-13.156-15.5h-1.428l-6.949-5.989V-15.5H-22.6V-26.628H-21.4l7.183,6.224v-6.224h1.066Z" transform="translate(22.599 26.628)"/>
      </g>
      <g id="Group_346" data-name="Group 346" transform="translate(160.025 36.127)">
        <path id="Path_8" data-name="Path 8" class="cls-4" d="M-7.513,0A4.834,4.834,0,0,1-3.7,1.79,6.181,6.181,0,0,1-2.142,5.968a5.9,5.9,0,0,1-.6,2.515A5.041,5.041,0,0,1-5,11a5.98,5.98,0,0,1-2.515.6,5.978,5.978,0,0,1-2.515-.6A5.488,5.488,0,0,1-12.308,8.61a8.16,8.16,0,0,1-.6-2.877,5.687,5.687,0,0,1,1.683-4.178A5.259,5.259,0,0,1-7.513,0m1.194,5.605v-1.3A9.143,9.143,0,0,0-6.554,1.9a1.114,1.114,0,0,0-.959-.7A1.057,1.057,0,0,0-8.6,1.9c0,.128-.106.362-.106.49v1.79l-.128,1.556v3.24a5.451,5.451,0,0,0,.128.6c0,.235.234.6.362.6a1.829,1.829,0,0,0,.7.234,1.566,1.566,0,0,0,.852-.234A1.512,1.512,0,0,0-6.447,9.08s.128-1.322.128-3.474" transform="translate(12.905)"/>
      </g>
      <path id="Path_9" data-name="Path 9" class="cls-4" d="M374.635-54.116h-3.944V-65.242h3.944Z" transform="translate(-215.804 101.604)"/>
      <g id="Group_347" data-name="Group 347" transform="translate(143.528 36.127)">
        <path id="Path_10" data-name="Path 10" class="cls-4" d="M-14.165-14.492A5.377,5.377,0,0,1-18-13.3a7.728,7.728,0,0,1-4.54-1.321,3.7,3.7,0,0,1-1.428-2.153,6.814,6.814,0,0,1-.362-2.153,5.406,5.406,0,0,1,1.79-4.412A7.169,7.169,0,0,1-18-24.893c.49,0,1.194.107,1.684.107a3.8,3.8,0,0,1,1.322.6,1.6,1.6,0,0,1,.959,1.449.939.939,0,0,1-.363.831,2.134,2.134,0,0,1-.853.234,2.267,2.267,0,0,1-1.556-.6.971.971,0,0,0,.362-.6.643.643,0,0,0-.362-.6,2.042,2.042,0,0,0-.831-.235,2.429,2.429,0,0,0-2.025,1.194,1.462,1.462,0,0,0-.362,1.066c0,.49-.128,1.215-.128,2.046a15.338,15.338,0,0,0,.256,2.877,2.066,2.066,0,0,0,.6,1.066,3,3,0,0,0,.959.725,3.172,3.172,0,0,0,1.193.234c.959,0,1.556-.362,1.556-1.087l-.128-.234a1.464,1.464,0,0,1,1.066.362,1.406,1.406,0,0,1,.49.959" transform="translate(24.332 24.893)"/>
      </g>
      <g id="Group_348" data-name="Group 348" transform="translate(132.636 36.362)">
        <path id="Path_11" data-name="Path 11" class="cls-4" d="M-13.661,0V7.417a6.8,6.8,0,0,1-.234,2.025,2.458,2.458,0,0,1-1.428,1.449,9.925,9.925,0,0,1-2.984.469c-1.087,0-2.046-.127-2.515-.127A3.362,3.362,0,0,1-23.1,9.57a4.883,4.883,0,0,1-.363-2.046V0h3.944V8.973c0,.234.255.469.362.7a3.583,3.583,0,0,0,1.918.49,2.7,2.7,0,0,0,2.152-.725c0-.234.235-.469.235-.7,0-.255.127-.6.127-1.087V0Z" transform="translate(23.465)"/>
      </g>
      <g id="Group_349" data-name="Group 349" transform="translate(121.511 36.361)">
        <path id="Path_12" data-name="Path 12" class="cls-4" d="M0-15.5V-26.628H5.392c.725,0,1.322.128,1.556.128a3.439,3.439,0,0,1,.959.341,2.073,2.073,0,0,1,.7.725,2.161,2.161,0,0,1,.362,1.193,2.3,2.3,0,0,1-.7,1.556,2.316,2.316,0,0,1-.959.725,5.188,5.188,0,0,1,1.428.7,2.7,2.7,0,0,1,1.428,2.515A2.869,2.869,0,0,1,8.611-16.1a2.46,2.46,0,0,1-1.194.469c-.469,0-1.065.128-1.79.128ZM3.964-22.45a1.378,1.378,0,0,0,1.065-.362,1.463,1.463,0,0,0,.362-1.065c0-.469-.128-.959-.362-1.087a1.512,1.512,0,0,0-1.065-.469Zm0,5.755H4.2a1.113,1.113,0,0,0,.959-.491,3.11,3.11,0,0,0,.362-1.79,3.111,3.111,0,0,0-.362-1.791,1.271,1.271,0,0,0-1.087-.6l-.107.107Z" transform="translate(0 26.628)"/>
      </g>
      <path id="Path_13" data-name="Path 13" class="cls-4" d="M281.338-54.116H277.4V-65.242h3.943Z" transform="translate(-161.49 101.604)"/>
      <g id="Group_350" data-name="Group 350" transform="translate(104.289 36.361)">
        <path id="Path_14" data-name="Path 14" class="cls-4" d="M-14.343-12.5a2.314,2.314,0,0,1-.49,1.556c-.234.234-.6.6-.938.6a4.9,4.9,0,0,1-1.215.234,4.1,4.1,0,0,1-1.79-.469A6.013,6.013,0,0,1-20.2-12.63h-.469v2.281h-3.964V-21.476h4.668c.831,0,1.684.128,2.153.128a4.576,4.576,0,0,1,1.556.7,3.646,3.646,0,0,1,1.918,3.24A3.887,3.887,0,0,1-15.3-14.89a8.936,8.936,0,0,1-3.112,1.79,2.666,2.666,0,0,0,.959.7,2.882,2.882,0,0,0,1.322.362,5.867,5.867,0,0,0,1.79-.469m-6.33-1.321h.107c.234,0,.6-.128.831-.128a.968.968,0,0,0,.6-.341,1.45,1.45,0,0,0,.491-.959c0-.362.128-1.087.128-1.79,0-.725-.128-1.322-.128-1.556a1.382,1.382,0,0,0-.362-.852,1.72,1.72,0,0,0-1.556-.831h-.107Z" transform="translate(24.638 21.476)"/>
      </g>
      <g id="Group_351" data-name="Group 351" transform="translate(93.291 36.361)">
        <path id="Path_15" data-name="Path 15" class="cls-4" d="M-9.829-15.5h-3.943v-9.932h-3.112v-1.194H-6.845v1.194H-9.829Z" transform="translate(16.884 26.628)"/>
      </g>
      <g id="Group_352" data-name="Group 352" transform="translate(83.615 36.127)">
        <path id="Path_16" data-name="Path 16" class="cls-4" d="M-11.641-2.167a2.179,2.179,0,0,1-1.3.959,2.386,2.386,0,0,0-.959-.959A2.716,2.716,0,0,0-15.35-2.53a1.381,1.381,0,0,0-.831.234.683.683,0,0,0-.362.6.764.764,0,0,0,.49.6,4.78,4.78,0,0,0,1.194.362c.831.234,1.556.469,2.025.6a5.93,5.93,0,0,1,1.322.831,3.96,3.96,0,0,1,1.321,3.005,4.194,4.194,0,0,1-1.321,3.112,5.853,5.853,0,0,1-1.556.831,13.058,13.058,0,0,1-2.153.234A7.26,7.26,0,0,1-18.7,7.04,2.924,2.924,0,0,1-20,4.653a2.744,2.744,0,0,1,.831-1.918,3.134,3.134,0,0,1,.959.362c.234.234.7.469.959.7-.362.128-.725.363-.725.491a.851.851,0,0,0-.234.6,1.625,1.625,0,0,0,.7,1.3,4.9,4.9,0,0,0,2.046.49A5.085,5.085,0,0,0-13.3,6.315a3.839,3.839,0,0,0,.6-.469,2.042,2.042,0,0,0,.234-.725A1.654,1.654,0,0,0-13.3,3.8a13.378,13.378,0,0,0-1.918-.6,17.838,17.838,0,0,1-2.025-.7,3.018,3.018,0,0,1-1.087-.618A3.083,3.083,0,0,1-19.527-.5,3,3,0,0,1-18.462-3.02a5.228,5.228,0,0,1,2.878-.7,6.314,6.314,0,0,1,2.387.362,2.849,2.849,0,0,1,1.556,1.3Z" transform="translate(19.996 3.723)"/>
      </g>
      <path id="Path_17" data-name="Path 17" class="cls-4" d="M191.713-54.116H187.77V-65.242h3.943Z" transform="translate(-109.313 101.604)"/>
      <g id="Group_353" data-name="Group 353" transform="translate(66.862 36.361)">
        <path id="Path_18" data-name="Path 18" class="cls-4" d="M0-15.5V-26.628H4.433a7.716,7.716,0,0,1,2.749.469A4.508,4.508,0,0,1,9.57-23.878a6.226,6.226,0,0,1,.7,2.984,5.428,5.428,0,0,1-1.9,4.305,2.285,2.285,0,0,1-1.449.852,10.734,10.734,0,0,1-2.259.235ZM3.943-16.7h.128a1.828,1.828,0,0,0,1.428-.6,1.525,1.525,0,0,0,.469-.959c0-.49.128-1.449.128-2.749,0-1.194-.128-2.046-.128-2.515A1.8,1.8,0,0,0,5.5-24.71a1.616,1.616,0,0,0-1.556-.725Z" transform="translate(0 26.628)"/>
      </g>
      <g id="Group_354" data-name="Group 354" transform="translate(162.178 17.712)">
        <path id="Path_19" data-name="Path 19" class="cls-4" d="M-15.828-15.472H-20.24l-.725-1.556H-25.27l-.725,1.556h-1.193l5.03-11.1h1.087Zm-5.606-2.75-1.684-3.453-1.663,3.453Z" transform="translate(27.188 26.576)"/>
      </g>
      <g id="Group_355" data-name="Group 355" transform="translate(152.139 17.712)">
        <path id="Path_20" data-name="Path 20" class="cls-4" d="M-13.156-15.472h-1.428l-6.948-5.968v5.968H-22.6v-11.1H-21.4l7.183,6.2v-6.2h1.066Z" transform="translate(22.598 26.576)"/>
      </g>
      <g id="Group_356" data-name="Group 356" transform="translate(140.289 17.712)">
        <path id="Path_21" data-name="Path 21" class="cls-4" d="M-15.858-15.472h-4.433l-.725-1.556h-4.3l-.7,1.556h-1.215l5.03-11.1h1.087Zm-5.627-2.75-1.684-3.453-1.663,3.453Z" transform="translate(27.239 26.576)"/>
      </g>
      <g id="Group_357" data-name="Group 357" transform="translate(130.974 17.712)">
        <path id="Path_22" data-name="Path 22" class="cls-4" d="M-5.494-15.472H-9.437v-11.1H-4.3c.725,0,1.428.107,1.79.107a2.383,2.383,0,0,1,1.322.49A2.752,2.752,0,0,1,.24-24.551a3.663,3.663,0,0,1,.6,2.025A4.631,4.631,0,0,1-.357-19.649a5.416,5.416,0,0,1-3.709,1.684c-.234,0-.831.107-1.428.107Zm0-3.581a1.782,1.782,0,0,0,1.428-.469,1.612,1.612,0,0,0,.49-.852,6.026,6.026,0,0,0,.234-1.663,9.218,9.218,0,0,0-.234-2.281,1.506,1.506,0,0,0-.6-.831,2.954,2.954,0,0,0-1.193-.234h-.128Z" transform="translate(9.437 26.576)"/>
      </g>
      <g id="Group_358" data-name="Group 358" transform="translate(117.568 17.712)">
        <path id="Path_23" data-name="Path 23" class="cls-4" d="M-16.511-15.472h-3.943v-8.845l-3.964,6.1-2.856-2.984v5.734h-1.087v-11.1h1.449l3.815,4.05,2.643-4.05h3.943Z" transform="translate(28.361 26.576)"/>
      </g>
      <g id="Group_359" data-name="Group 359" transform="translate(105.739 17.712)">
        <path id="Path_24" data-name="Path 24" class="cls-4" d="M-15.828-15.472h-4.433l-.725-1.556h-4.3l-.7,1.556h-1.193l5.009-11.1h1.087Zm-5.627-2.75-1.684-3.453L-24.8-18.221Z" transform="translate(27.188 26.576)"/>
      </g>
      <g id="Group_360" data-name="Group 360" transform="translate(95.444 17.456)">
        <path id="Path_25" data-name="Path 25" class="cls-4" d="M-14.165-14.522A5.477,5.477,0,0,1-18-13.328a7.884,7.884,0,0,1-4.54-1.321A3.949,3.949,0,0,1-23.97-16.8a6.916,6.916,0,0,1-.362-2.153,5.451,5.451,0,0,1,1.79-4.434A7.171,7.171,0,0,1-18-24.944c.49,0,1.215.128,1.684.128a3.63,3.63,0,0,1,1.322.6,1.545,1.545,0,0,1,.959,1.428.979.979,0,0,1-.362.852,2.441,2.441,0,0,1-.831.234,2.191,2.191,0,0,1-1.556-.6,1.084,1.084,0,0,0,.341-.6.619.619,0,0,0-.341-.6,2.178,2.178,0,0,0-.852-.255,2.451,2.451,0,0,0-2.025,1.215,1.463,1.463,0,0,0-.362,1.066c0,.469-.128,1.193-.128,2.024a14.941,14.941,0,0,0,.256,2.878,2.308,2.308,0,0,0,.6,1.087,2.675,2.675,0,0,0,.959.7,2.764,2.764,0,0,0,1.193.256c.959,0,1.556-.363,1.556-1.087l-.128-.234a1.429,1.429,0,0,1,1.087.363,1.473,1.473,0,0,1,.469.959" transform="translate(24.332 24.944)"/>
      </g>
      <g id="Group_361" data-name="Group 361" transform="translate(211.576 36.127)">
        <path id="Path_26" data-name="Path 26" class="cls-4" d="M-11.641-2.167a2.177,2.177,0,0,1-1.3.959,2.389,2.389,0,0,0-.959-.959A2.715,2.715,0,0,0-15.35-2.53a1.379,1.379,0,0,0-.831.234.683.683,0,0,0-.362.6.764.764,0,0,0,.49.6,4.772,4.772,0,0,0,1.194.362c.831.234,1.556.469,2.025.6a5.936,5.936,0,0,1,1.321.831,3.959,3.959,0,0,1,1.322,3.005,4.193,4.193,0,0,1-1.322,3.112,5.842,5.842,0,0,1-1.556.831,13.047,13.047,0,0,1-2.152.234A7.262,7.262,0,0,1-18.7,7.04,2.924,2.924,0,0,1-20,4.653a2.744,2.744,0,0,1,.831-1.918,3.127,3.127,0,0,1,.959.362c.234.234.7.469.959.7-.362.128-.725.363-.725.491a.851.851,0,0,0-.234.6,1.624,1.624,0,0,0,.7,1.3,4.9,4.9,0,0,0,2.046.49A5.085,5.085,0,0,0-13.3,6.315a3.839,3.839,0,0,0,.6-.469,2.044,2.044,0,0,0,.235-.725A1.654,1.654,0,0,0-13.3,3.8a13.385,13.385,0,0,0-1.918-.6,17.807,17.807,0,0,1-2.025-.7,3.02,3.02,0,0,1-1.088-.618A3.084,3.084,0,0,1-19.527-.5,3,3,0,0,1-18.461-3.02a5.225,5.225,0,0,1,2.877-.7,6.314,6.314,0,0,1,2.387.362,2.846,2.846,0,0,1,1.556,1.3Z" transform="translate(19.996 3.723)"/>
      </g>
      <g id="Group_362" data-name="Group 362" transform="translate(225.931 36.537)">
        <path id="Path_27" data-name="Path 27" class="cls-4" d="M-14.343-12.5a2.317,2.317,0,0,1-.49,1.556c-.234.234-.6.6-.938.6a4.895,4.895,0,0,1-1.215.234,4.1,4.1,0,0,1-1.79-.469A6.013,6.013,0,0,1-20.2-12.63h-.469v2.281h-3.964V-21.476h4.668c.831,0,1.683.128,2.153.128a4.581,4.581,0,0,1,1.556.7,3.646,3.646,0,0,1,1.918,3.24A3.886,3.886,0,0,1-15.3-14.89a8.93,8.93,0,0,1-3.112,1.79,2.668,2.668,0,0,0,.959.7,2.881,2.881,0,0,0,1.321.362,5.882,5.882,0,0,0,1.79-.469m-6.33-1.321h.106c.235,0,.6-.128.831-.128a.969.969,0,0,0,.6-.341,1.45,1.45,0,0,0,.491-.959c0-.362.128-1.087.128-1.79,0-.725-.128-1.322-.128-1.556a1.381,1.381,0,0,0-.362-.852,1.72,1.72,0,0,0-1.556-.831h-.106Z" transform="translate(24.638 21.476)"/>
      </g>
      <g id="Group_363" data-name="Group 363" transform="translate(242.653 36.361)">
        <path id="Path_28" data-name="Path 28" class="cls-4" d="M-5.494-15.5H-9.437V-26.628h3.943v9.8h3.487V-15.6H-5.494Z" transform="translate(9.437 26.628)"/>
      </g>
      <g id="Group_364" data-name="Group 364" transform="translate(221.691 45.243)">
        <path id="Path_29" data-name="Path 29" class="cls-4" d="M-1.65-3.3A1.186,1.186,0,0,0-.466-4.485,1.186,1.186,0,0,0-1.65-5.669,1.186,1.186,0,0,0-2.835-4.485,1.187,1.187,0,0,0-1.65-3.3" transform="translate(2.835 5.669)"/>
      </g>
      <g id="Group_365" data-name="Group 365" transform="translate(221.691 45.243)">
        <path id="Path_30" data-name="Path 30" class="cls-5" d="M-1.65-3.3A1.186,1.186,0,0,0-.466-4.485,1.186,1.186,0,0,0-1.65-5.669,1.186,1.186,0,0,0-2.835-4.485,1.187,1.187,0,0,0-1.65-3.3Z" transform="translate(2.835 5.669)"/>
      </g>
      <g id="Group_366" data-name="Group 366" transform="translate(238.367 45.243)">
        <path id="Path_31" data-name="Path 31" class="cls-4" d="M-1.65-3.3A1.187,1.187,0,0,0-.465-4.485,1.186,1.186,0,0,0-1.65-5.669,1.186,1.186,0,0,0-2.834-4.485,1.186,1.186,0,0,0-1.65-3.3" transform="translate(2.834 5.669)"/>
      </g>
      <g id="Group_367" data-name="Group 367" transform="translate(238.367 45.243)">
        <path id="Path_32" data-name="Path 32" class="cls-5" d="M-1.65-3.3A1.187,1.187,0,0,0-.465-4.485,1.186,1.186,0,0,0-1.65-5.669,1.186,1.186,0,0,0-2.834-4.485,1.186,1.186,0,0,0-1.65-3.3Z" transform="translate(2.834 5.669)"/>
      </g>
    </g>
  </g>
</svg>
