<svg xmlns="http://www.w3.org/2000/svg" xmlns:xlink="http://www.w3.org/1999/xlink" viewBox="0 0 41.879 64.006">
  <defs>
    <style>
      .cls-1 {
        fill: #324554;
      }

      .cls-2 {
        clip-path: url(#clip-path);
      }
    </style>
    <clipPath id="clip-path">
      <path id="Path_129" data-name="Path 129" class="cls-1" d="M0-768H41.879v64.006H0Z" transform="translate(0 768)"/>
    </clipPath>
  </defs>
  <g id="Group_604" data-name="Group 604" class="cls-2" transform="translate(0)">
    <g id="Group_603" data-name="Group 603" transform="translate(0 0)">
      <path id="Path_128" data-name="Path 128" class="cls-1" d="M-394.624-359.478a15.8,15.8,0,0,0,.83-3.235,1.255,1.255,0,0,1,.9.485c.157.294.03.8-.339,1.35a5.861,5.861,0,0,1-1.391,1.4m4.125-11.745v25.166a7.171,7.171,0,0,0-5.313-2.352h-9.064V-349.8a16.01,16.01,0,0,0,8.774-6.71,9.825,9.825,0,0,0,4.427-3.325,3.177,3.177,0,0,0,.435-3.277,3.128,3.128,0,0,0-2.391-1.472c0-.15.007-.3.007-.452v-8.688a.937.937,0,0,0-.938-.938.937.937,0,0,0-.938.938v1.563h-1.875v-1.563a.937.937,0,0,0-.937-.938.937.937,0,0,0-.938.938v1.563h-1.875v-1.563a.937.937,0,0,0-.938-.938.938.938,0,0,0-.938.938v1.563h-1.875v-1.563a.937.937,0,0,0-.938-.938.937.937,0,0,0-.938.938v1.563h-1.875v-1.563a.937.937,0,0,0-.938-.938.937.937,0,0,0-.938.938v1.563h-1.875v-1.563a.937.937,0,0,0-.938-.938.937.937,0,0,0-.938.938v1.563h-1.875v-1.563a.937.937,0,0,0-.938-.938.937.937,0,0,0-.938.938v1.563h-1.875v-1.563a.937.937,0,0,0-.938-.938.937.937,0,0,0-.938.938v1.563h-1.875v-1.563a.937.937,0,0,0-.938-.938.937.937,0,0,0-.938.938v8.688A15.967,15.967,0,0,0-414.251-349.8v1.392h-9.063a7.171,7.171,0,0,0-5.313,2.352v-25.1c0-.022,0-.043,0-.065a19.084,19.084,0,0,1,19.063-19.063A19.084,19.084,0,0,1-390.5-371.224v0M-406.75-355.6c0,.443-.668.938-1.563.938s-1.563-.5-1.563-.938.668-.938,1.563-.938,1.563.495,1.563.938m-1.563-2.813c-1.928,0-3.438,1.236-3.438,2.813s1.51,2.813,3.438,2.813a3.243,3.243,0,0,0,3.406-2.426c.511.031,1.012.048,1.5.048a21.084,21.084,0,0,0,4.244-.416,14.031,14.031,0,0,1-10.4,4.606,14.08,14.08,0,0,1-14.064-14.064v-5.251H-395.5v5.25a13.978,13.978,0,0,1-1.87,7,18.742,18.742,0,0,1-8.045.906,3.645,3.645,0,0,0-2.9-1.282m-1.248,18.752a7.823,7.823,0,0,1-7.755-6.876h4a.937.937,0,0,0,.938-.938h0v-1.874a15.972,15.972,0,0,0,2.813.249,15.982,15.982,0,0,0,2.813-.249v1.874a.937.937,0,0,0,.938.938h4.006a7.823,7.823,0,0,1-7.755,6.876m20.938-31.564v0a20.962,20.962,0,0,0-20.938-20.938A20.961,20.961,0,0,0-430.5-371.309c0,.029,0,.058,0,.087v30s0,0,0,0v5a.938.938,0,0,0,.938.938.939.939,0,0,0,.938-.938v-5h0v0a5.319,5.319,0,0,1,5.313-5.308h4.111a9.7,9.7,0,0,0,9.642,8.751,9.7,9.7,0,0,0,9.642-8.751h4.107a5.319,5.319,0,0,1,5.313,5.308v11.194h-6.876v-4.5a.937.937,0,0,0-.938-.938.938.938,0,0,0-.938.938v4.5h-20.627v-4.5a.938.938,0,0,0-.938-.938.937.937,0,0,0-.938.938v4.5h-6.876v-2.439a.939.939,0,0,0-.938-.938.939.939,0,0,0-.938.938v3.377a.937.937,0,0,0,.938.938h40a.937.937,0,0,0,.938-.938v-12.127s0,0,0,0Z" transform="translate(430.503 392.161)"/>
    </g>
  </g>
</svg>
