<svg xmlns="http://www.w3.org/2000/svg" xmlns:xlink="http://www.w3.org/1999/xlink" viewBox="0 0 47.025 62.214">
  <defs>
    <style>
      .cls-1 {
        fill: #324554;
      }

      .cls-2 {
        clip-path: url(#clip-path);
      }
    </style>
    <clipPath id="clip-path">
      <path id="Path_118" data-name="Path 118" class="cls-1" d="M0-768.022H47.025v62.214H0Z" transform="translate(0 768.022)"/>
    </clipPath>
  </defs>
  <g id="Group_588" data-name="Group 588" class="cls-2" transform="translate(0)">
    <g id="Group_584" data-name="Group 584" transform="translate(26.287 51.844)">
      <path id="Path_114" data-name="Path 114" class="cls-1" d="M-41.172-58.817a1.557,1.557,0,0,1-1.555-1.555,1.557,1.557,0,0,1,1.555-1.555,1.557,1.557,0,0,1,1.555,1.555,1.557,1.557,0,0,1-1.555,1.555m0-5.184A3.633,3.633,0,0,0-44.8-60.372a3.633,3.633,0,0,0,3.629,3.629,3.633,3.633,0,0,0,3.629-3.629A3.634,3.634,0,0,0-41.172-64" transform="translate(44.801 64.001)"/>
    </g>
    <g id="Group_585" data-name="Group 585" transform="translate(30.435 30.069)">
      <path id="Path_115" data-name="Path 115" class="cls-1" d="M-47.053-23.527a2.076,2.076,0,0,1,2.074,2.074,2.076,2.076,0,0,1-2.074,2.074,2.076,2.076,0,0,1-2.074-2.074,2.076,2.076,0,0,1,2.074-2.074m0,6.221A4.152,4.152,0,0,0-42.9-21.453,4.152,4.152,0,0,0-47.053-25.6,4.152,4.152,0,0,0-51.2-21.453a4.151,4.151,0,0,0,4.147,4.147" transform="translate(51.2 25.601)"/>
    </g>
    <g id="Group_586" data-name="Group 586" transform="translate(8.66 8.294)">
      <path id="Path_116" data-name="Path 116" class="cls-1" d="M-11.767-47.057a1.034,1.034,0,0,0,.733-.3l2.074-2.074a1.036,1.036,0,0,0,0-1.466,1.036,1.036,0,0,0-1.466,0L-12.5-48.827a1.036,1.036,0,0,0,0,1.466,1.034,1.034,0,0,0,.733.3" transform="translate(12.804 51.205)"/>
    </g>
    <g id="Group_587" data-name="Group 587" transform="translate(0 0)">
      <path id="Path_117" data-name="Path 117" class="cls-1" d="M-498.5-400.986a6.708,6.708,0,0,1,1.011,3.538,6.686,6.686,0,0,1-2.7,5.382l-.413.311v4.157h-18.665v-2.818l-.366-.31c-.047-.04-.1-.078-.187-.145l-9.2-9.17h5.273l9.735,9.736a3.407,3.407,0,0,0,2.415,1,3.406,3.406,0,0,0,2.416-1Zm-.026,24.794h-6.221v-3.552a7.827,7.827,0,0,0-2.555-5.78h8.776Zm-22.811,0v-9.332h8.737a5.787,5.787,0,0,1,5.78,5.78v3.552Zm-9.373-31.042.43-.049a.889.889,0,0,1,.129-.016h10.369a2.594,2.594,0,0,1,2.592,2.592,2.594,2.594,0,0,1-2.592,2.592H-530.15a2.594,2.594,0,0,1-2.592-2.592,2.6,2.6,0,0,1,2.033-2.528m9.3-22.728,1.221,1.221,5.184,5.184.594.594,4.59,4.59.594.594,4.59,4.59.594.594,5.184,5.184.975.975a1.342,1.342,0,0,1,0,1.9l-.453.454-12.312,12.313a1.344,1.344,0,0,1-1.9,0l-8.269-8.27h1.033a4.672,4.672,0,0,0,4.666-4.666,4.672,4.672,0,0,0-4.666-4.666h-10.366l-5.927-5.927ZM-539.974-419.2a1.346,1.346,0,0,1,0-1.9l12.766-12.766a1.336,1.336,0,0,1,.442-.292,1.315,1.315,0,0,1,.231-.046,1.3,1.3,0,0,1,.552,0,1.308,1.308,0,0,1,.231.046,1.347,1.347,0,0,1,.442.292l2.436,2.436-14.664,14.664Zm24.342-10.91a2.6,2.6,0,0,1,2.592,2.592,2.59,2.59,0,0,1-.972,2.019l-3.641-3.641a2.594,2.594,0,0,1,2.02-.971m7.777,7.777a2.59,2.59,0,0,1-.972,2.019l-3.641-3.641a2.591,2.591,0,0,1,2.019-.972,2.6,2.6,0,0,1,2.593,2.593m5.184,5.184a2.59,2.59,0,0,1-.972,2.019l-3.64-3.641a2.591,2.591,0,0,1,2.019-.971,2.6,2.6,0,0,1,2.593,2.593m5.184,5.184a2.589,2.589,0,0,1-.971,2.019l-3.641-3.641a2.591,2.591,0,0,1,2.019-.971,2.6,2.6,0,0,1,2.593,2.593m2.074,6.478a3.393,3.393,0,0,0-1-2.415l-.578-.578a4.657,4.657,0,0,0,1.577-3.486,4.672,4.672,0,0,0-4.666-4.666,4.571,4.571,0,0,0-.56.041,4.557,4.557,0,0,0,.041-.56,4.672,4.672,0,0,0-4.666-4.666,4.564,4.564,0,0,0-.56.042,4.571,4.571,0,0,0,.041-.56A4.672,4.672,0,0,0-510.449-427a4.551,4.551,0,0,0-.56.041,4.571,4.571,0,0,0,.041-.56,4.672,4.672,0,0,0-4.666-4.666,4.659,4.659,0,0,0-3.486,1.577l-.823-.823-3.9-3.9a3.418,3.418,0,0,0-4.83,0l-12.766,12.766a3.423,3.423,0,0,0,0,4.831l3.9,3.9,5.091,5.091a4.652,4.652,0,0,0-2.367,4.035,4.664,4.664,0,0,0,2.091,3.886,1.539,1.539,0,0,0,.235.251l11.153,11.11v1.862h-2.074v13.479h26.959V-387.6h-2.074v-3.142a8.731,8.731,0,0,0,3.111-6.71,8.788,8.788,0,0,0-1.593-5.031l.592-.592a3.393,3.393,0,0,0,1-2.415" transform="translate(542.438 436.331)"/>
    </g>
  </g>
</svg>
