<svg xmlns="http://www.w3.org/2000/svg" xmlns:xlink="http://www.w3.org/1999/xlink" viewBox="0 0 71 62.022">
  <defs>
    <style>
      .cls-1 {
        fill: #324554;
      }

      .cls-2 {
        clip-path: url(#clip-path);
      }
    </style>
    <clipPath id="clip-path">
      <path id="Path_84" data-name="Path 84" class="cls-1" d="M0-670.889H71v62.022H0Z" transform="translate(0 670.889)"/>
    </clipPath>
  </defs>
  <g id="Group_454" data-name="Group 454" class="cls-2">
    <g id="Group_453" data-name="Group 453" transform="translate(0 0)">
      <path id="Path_83" data-name="Path 83" class="cls-1" d="M-431.84-504.477a8.792,8.792,0,0,0-.3-1,8.64,8.64,0,0,0-.415-.956l24.637-8.959.712,1.955Zm-2.47,4.748a6.543,6.543,0,0,1-3.717,3.406,6.565,6.565,0,0,1-2.252.4,6.608,6.608,0,0,1-6.19-4.336,6.594,6.594,0,0,1,3.937-8.442,6.565,6.565,0,0,1,2.252-.4,6.609,6.609,0,0,1,6.19,4.336,6.543,6.543,0,0,1-.22,5.036m-24.732-51.293c-.006-.017-.014-.032-.021-.049s-.013-.032-.02-.048-.015-.027-.022-.041-.018-.034-.028-.051-.015-.022-.022-.032-.023-.036-.036-.053l-.021-.026c-.014-.018-.029-.036-.044-.053l-.02-.019c-.017-.018-.034-.035-.053-.051l-.016-.013c-.02-.017-.041-.034-.062-.05l-.009-.006c-.024-.017-.049-.034-.074-.049l-.006,0a1.045,1.045,0,0,0-.469-.14h0c-.032,0-.064,0-.1,0l-.018,0c-.028,0-.056,0-.084.008l-.04.008-.062.012c-.023.006-.046.014-.07.021l-.031.01h0l-12.368,4.461-.711-1.955,12.366-4.46h0a3.123,3.123,0,0,1,4,1.865l14.842,40.78a8.692,8.692,0,0,0-1,.3,8.73,8.73,0,0,0-.955.417Zm17.66,24.193,7.166-2.608,1.542,4.234a1.043,1.043,0,0,0,.978.685,1.037,1.037,0,0,0,.355-.064l5.212-1.9a1.039,1.039,0,0,0,.621-1.332l-1.541-4.234,7.167-2.609,6.879,18.9-20.751,7.546a8.721,8.721,0,0,0-1.29-1.2ZM-429-531.333l1.186,3.257-3.259,1.186-1.185-3.257Zm-6.165-16.939,1.185,3.258-3.258,1.186-1.186-3.257Zm30.276,35.1-1.423-3.909a1.037,1.037,0,0,0-.531-.583l-.006,0c-.016-.007-.032-.013-.048-.02l-.045-.018-.011,0a1.032,1.032,0,0,0-.691.006l-3.4,1.237-7.235-19.878h0l-2.845-7.817a1.044,1.044,0,0,0-.978-.684,1.034,1.034,0,0,0-.355.062,1.041,1.041,0,0,0-.623,1.333l2.491,6.841-13.356,4.861h0l-8.143,2.963-5.455-14.984,7.167-2.608,1.541,4.234a1.043,1.043,0,0,0,.976.685,1.009,1.009,0,0,0,.356-.064l5.213-1.9a1.035,1.035,0,0,0,.587-.537,1.034,1.034,0,0,0,.086-.589.019.019,0,0,0,0,0c0-.027-.01-.054-.016-.081,0-.008,0-.015,0-.022a.981.981,0,0,0-.031-.1l-1.541-4.234,7.166-2.608,1.541,4.234a1.046,1.046,0,0,0,.978.685,1.018,1.018,0,0,0,.356-.064,1.041,1.041,0,0,0,.621-1.333l-1.9-5.213a1.045,1.045,0,0,0-.817-.671,1.014,1.014,0,0,0-.161-.013,1.034,1.034,0,0,0-.355.062l-9.117,3.318h0l-.008,0-5.2,1.891-.009,0-.015.006-9.106,3.315a1.034,1.034,0,0,0-.587.537,1.031,1.031,0,0,0-.035.8l6.165,16.939,5.929,16.29a8.609,8.609,0,0,0-2.349-.374l-15.019-41.266a5.206,5.206,0,0,0-6.665-3.108h0l-13.343,4.812h0c-.024.009-.047.019-.07.029l-.027.011c-.022.011-.044.023-.065.035l-.027.015c-.021.012-.04.026-.059.04l-.026.018c-.018.014-.035.029-.052.043l-.026.022c-.016.015-.031.031-.046.047l-.025.026c-.014.016-.027.033-.04.05l-.023.028c-.012.016-.022.034-.033.051l-.022.033c-.01.017-.018.035-.027.052s-.013.024-.019.036-.015.035-.022.053-.012.026-.016.04-.011.035-.016.052-.009.029-.013.043-.007.035-.011.052-.007.03-.009.046,0,.036-.006.054,0,.031,0,.047,0,.037,0,.055,0,.031,0,.047,0,.037.005.056,0,.031,0,.046.007.037.011.055.006.031.009.047.011.037.017.055.008.031.014.046h0v0l1.423,3.909c.011.029.025.056.038.084s.018.045.03.065.036.055.055.083.022.036.034.052a.992.992,0,0,0,.073.08c.012.012.022.026.034.037a1.042,1.042,0,0,0,.09.073c.011.009.021.018.033.026a.968.968,0,0,0,.1.061c.011.006.02.013.031.018a1.059,1.059,0,0,0,.113.045l.033.013a1.058,1.058,0,0,0,.12.028l.033.008a1.03,1.03,0,0,0,.158.012q.044,0,.089,0l.018,0,.07-.009.032-.007.056-.013c.02-.005.039-.012.059-.018l.028-.009h0l12.368-4.461,14.666,40.294a8.679,8.679,0,0,0-2.447,9.493,8.7,8.7,0,0,0,8.145,5.7,8.639,8.639,0,0,0,2.964-.525,8.61,8.61,0,0,0,4.89-4.481,8.642,8.642,0,0,0,.813-3.5l26.1-9.491h0l.02-.008c.027-.01.053-.021.078-.033l.031-.017c.021-.011.041-.021.061-.033l.032-.022c.018-.012.036-.024.053-.036l.015-.013c.021-.017.043-.034.062-.053l.01-.01c.021-.02.041-.041.061-.062l.011-.014c.018-.021.036-.042.052-.065l0-.007c.018-.025.035-.05.05-.076l.008-.015c.014-.024.027-.048.039-.073,0-.01.008-.02.012-.03s.018-.041.025-.062.009-.03.013-.044.011-.034.016-.051.011-.052.016-.078c0-.007,0-.014,0-.02a1.036,1.036,0,0,0-.052-.509" transform="translate(475.829 555.865)"/>
    </g>
  </g>
</svg>
