<svg xmlns="http://www.w3.org/2000/svg" xmlns:xlink="http://www.w3.org/1999/xlink" viewBox="0 0 63.978 63.95">
  <defs>
    <style>
      .cls-1 {
        fill: #324554;
      }

      .cls-2 {
        clip-path: url(#clip-path);
      }
    </style>
    <clipPath id="clip-path">
      <path id="Path_98" data-name="Path 98" class="cls-1" d="M0-771.643H63.978v63.95H0Z" transform="translate(0 771.643)"/>
    </clipPath>
  </defs>
  <g id="Group_607" data-name="Group 607" transform="translate(0 771.643)">
    <g id="Group_470" data-name="Group 470" class="cls-2" transform="translate(0 -771.643)">
      <g id="Group_462" data-name="Group 462" transform="translate(13.858 28.476)">
        <path id="Path_90" data-name="Path 90" class="cls-1" d="M-73.411-73.437a2.777,2.777,0,0,1-1.977.819,2.778,2.778,0,0,1-1.977-.819,2.8,2.8,0,0,1,0-3.954,2.777,2.777,0,0,1,1.977-.819,2.777,2.777,0,0,1,1.977.819,2.777,2.777,0,0,1,.819,1.977,2.778,2.778,0,0,1-.819,1.977m1.318-5.271a4.628,4.628,0,0,0-3.295-1.365,4.629,4.629,0,0,0-3.295,1.365,4.665,4.665,0,0,0,0,6.589,4.63,4.63,0,0,0,3.295,1.365,4.628,4.628,0,0,0,3.294-1.365,4.628,4.628,0,0,0,1.365-3.295,4.628,4.628,0,0,0-1.365-3.295" transform="translate(80.045 80.073)"/>
      </g>
      <g id="Group_463" data-name="Group 463" transform="translate(13.693 28.31)">
        <path id="Path_91" data-name="Path 91" class="cls-1" d="M-53.37-24.293a2.612,2.612,0,0,0-1.86.77,2.633,2.633,0,0,0,0,3.719,2.614,2.614,0,0,0,1.86.77,2.612,2.612,0,0,0,1.859-.77,2.614,2.614,0,0,0,.771-1.86,2.612,2.612,0,0,0-.77-1.86,2.613,2.613,0,0,0-1.86-.77m0,5.591a2.943,2.943,0,0,1-2.094-.867,2.965,2.965,0,0,1,0-4.188,2.941,2.941,0,0,1,2.094-.867,2.942,2.942,0,0,1,2.094.867,2.942,2.942,0,0,1,.868,2.094,2.943,2.943,0,0,1-.868,2.094,2.941,2.941,0,0,1-2.094.867m0-7.455a4.464,4.464,0,0,0-3.178,1.316,4.5,4.5,0,0,0,0,6.355,4.465,4.465,0,0,0,3.178,1.316,4.463,4.463,0,0,0,3.177-1.316,4.464,4.464,0,0,0,1.316-3.177,4.463,4.463,0,0,0-1.316-3.178,4.464,4.464,0,0,0-3.177-1.316m0,9.319a4.794,4.794,0,0,1-3.412-1.413,4.831,4.831,0,0,1,0-6.824,4.793,4.793,0,0,1,3.412-1.413,4.793,4.793,0,0,1,3.412,1.413,4.793,4.793,0,0,1,1.413,3.412,4.793,4.793,0,0,1-1.413,3.412,4.793,4.793,0,0,1-3.412,1.413" transform="translate(58.193 26.488)"/>
      </g>
      <g id="Group_464" data-name="Group 464" transform="translate(26.158 40.776)">
        <path id="Path_92" data-name="Path 92" class="cls-1" d="M-73.412-73.437a2.777,2.777,0,0,1-1.977.819,2.777,2.777,0,0,1-1.977-.819,2.8,2.8,0,0,1,0-3.954,2.778,2.778,0,0,1,1.977-.819,2.778,2.778,0,0,1,1.977.819,2.778,2.778,0,0,1,.819,1.977,2.779,2.779,0,0,1-.819,1.977m1.318-5.271a4.628,4.628,0,0,0-3.295-1.365,4.629,4.629,0,0,0-3.295,1.365,4.665,4.665,0,0,0,0,6.589,4.628,4.628,0,0,0,3.294,1.365,4.629,4.629,0,0,0,3.295-1.365,4.629,4.629,0,0,0,1.365-3.295,4.628,4.628,0,0,0-1.365-3.295" transform="translate(80.046 80.073)"/>
      </g>
      <g id="Group_465" data-name="Group 465" transform="translate(25.993 40.61)">
        <path id="Path_93" data-name="Path 93" class="cls-1" d="M-53.371-24.291a2.613,2.613,0,0,0-1.86.77,2.633,2.633,0,0,0,0,3.719,2.612,2.612,0,0,0,1.859.77,2.613,2.613,0,0,0,1.86-.77,2.614,2.614,0,0,0,.77-1.86,2.613,2.613,0,0,0-.77-1.859,2.612,2.612,0,0,0-1.86-.77m0,5.591a2.942,2.942,0,0,1-2.094-.867,2.965,2.965,0,0,1,0-4.188,2.943,2.943,0,0,1,2.094-.867,2.942,2.942,0,0,1,2.094.867,2.943,2.943,0,0,1,.867,2.094,2.944,2.944,0,0,1-.867,2.094,2.942,2.942,0,0,1-2.094.867m0-7.455a4.464,4.464,0,0,0-3.178,1.316,4.5,4.5,0,0,0,0,6.355,4.464,4.464,0,0,0,3.177,1.316,4.465,4.465,0,0,0,3.178-1.316,4.464,4.464,0,0,0,1.316-3.177,4.463,4.463,0,0,0-1.316-3.178,4.464,4.464,0,0,0-3.178-1.316m0,9.319a4.792,4.792,0,0,1-3.412-1.413,4.831,4.831,0,0,1,0-6.824,4.794,4.794,0,0,1,3.412-1.413,4.793,4.793,0,0,1,3.412,1.413,4.792,4.792,0,0,1,1.413,3.412,4.793,4.793,0,0,1-1.413,3.412,4.794,4.794,0,0,1-3.412,1.413" transform="translate(58.193 26.486)"/>
      </g>
      <g id="Group_466" data-name="Group 466" transform="translate(14.948 29.567)">
        <path id="Path_94" data-name="Path 94" class="cls-1" d="M-212.053-3.022a.932.932,0,0,0-1.318,0l-17.571,17.571a.932.932,0,0,0,0,1.318.929.929,0,0,0,.659.273.929.929,0,0,0,.659-.273L-212.053-1.7a.931.931,0,0,0,0-1.318" transform="translate(231.214 3.295)"/>
      </g>
      <g id="Group_467" data-name="Group 467" transform="translate(14.783 29.402)">
        <path id="Path_95" data-name="Path 95" class="cls-1" d="M-206.589-3.668a.761.761,0,0,0-.542.224L-224.7,14.127a.767.767,0,0,0,0,1.083.761.761,0,0,0,.542.224.761.761,0,0,0,.542-.224l17.571-17.571a.762.762,0,0,0,.224-.542.76.76,0,0,0-.224-.542.761.761,0,0,0-.542-.225M-224.16,15.767a1.091,1.091,0,0,1-.776-.322,1.1,1.1,0,0,1,0-1.552l17.571-17.572A1.09,1.09,0,0,1-206.589-4a1.09,1.09,0,0,1,.776.322,1.09,1.09,0,0,1,.322.776,1.091,1.091,0,0,1-.322.776l-17.571,17.571a1.09,1.09,0,0,1-.776.322" transform="translate(225.257 4)"/>
      </g>
      <g id="Group_468" data-name="Group 468" transform="translate(0.166 0.166)">
        <path id="Path_96" data-name="Path 96" class="cls-1" d="M-668.7-76.55a39.086,39.086,0,0,1-6.626,8.612c-.787.787-1.588,1.528-2.391,2.218l-.21-1.751a4.076,4.076,0,0,0-1.2-2.377,4.077,4.077,0,0,0-2.377-1.2l-1.75-.21c.694-.809,1.436-1.609,2.218-2.391,6.572-6.572,12.453-8.735,13.466-7.722.47.47.3,2.143-1.129,4.821m-20.683,16.958a3.119,3.119,0,0,0,2.312.849,5.556,5.556,0,0,0,.622-.037,2.794,2.794,0,0,1-.41.526,2.745,2.745,0,0,1-1.954.81,2.746,2.746,0,0,1-1.954-.81,2.767,2.767,0,0,1,0-3.908,2.745,2.745,0,0,1,1.954-.81,2.746,2.746,0,0,1,1.954.809,2.744,2.744,0,0,1,.759,1.426,2.2,2.2,0,0,1-1.966-.174.932.932,0,0,0-1.318,0,.932.932,0,0,0,0,1.318m23.13-23.1c-1.258-1.258-3.69-.987-7.032.786a40.513,40.513,0,0,0-9.07,6.937,43.983,43.983,0,0,0-3.105,3.445l-13.075-1.568a4.494,4.494,0,0,0-.544-.032,6.808,6.808,0,0,0-2.4.481,5.961,5.961,0,0,0-2.053,1.279L-715.2-59.7a.934.934,0,0,0,0,1.318.929.929,0,0,0,.66.272.928.928,0,0,0,.658-.272l11.667-11.668A4.222,4.222,0,0,1-700.8-70.9a5.016,5.016,0,0,1,1.711-.354h.01a2.611,2.611,0,0,1,.322.019l17.031,2.043a2.26,2.26,0,0,1,1.281.668,2.26,2.26,0,0,1,.668,1.281l.35,2.917a26.54,26.54,0,0,1-4.141,2.644c-.242.121-.5.239-.755.351a4.6,4.6,0,0,0-1.217-2.143,4.6,4.6,0,0,0-3.272-1.355,4.6,4.6,0,0,0-3.272,1.355,4.633,4.633,0,0,0,0,6.544,4.6,4.6,0,0,0,3.272,1.355,4.6,4.6,0,0,0,3.272-1.355,4.594,4.594,0,0,0,1.275-2.409,16.407,16.407,0,0,0,1.531-.676,26.855,26.855,0,0,0,3.562-2.184l1.438,11.987a2.606,2.606,0,0,1,.019.322,4.984,4.984,0,0,1-.354,1.721,4.239,4.239,0,0,1-.859,1.411l-24.6,24.6a1.548,1.548,0,0,1-1.1.452,1.548,1.548,0,0,1-1.1-.452L-726.812-43.25a1.548,1.548,0,0,1-.452-1.1,1.548,1.548,0,0,1,.452-1.1l10.3-10.3a.931.931,0,0,0,0-1.317.922.922,0,0,0-.658-.273.925.925,0,0,0-.659.273l-10.3,10.3a3.417,3.417,0,0,0-.749,1.131,3.433,3.433,0,0,0-.249,1.286,3.422,3.422,0,0,0,.249,1.285,3.391,3.391,0,0,0,.749,1.131l21.086,21.086a3.371,3.371,0,0,0,1.128.748,3.422,3.422,0,0,0,1.284.25h.007a3.417,3.417,0,0,0,1.284-.25,3.376,3.376,0,0,0,1.129-.748l24.6-24.6a5.945,5.945,0,0,0,1.277-2.052,6.818,6.818,0,0,0,.482-2.4,4.541,4.541,0,0,0-.032-.544l-1.568-13.075a44.127,44.127,0,0,0,3.445-3.106,41,41,0,0,0,6.952-9.05c1.783-3.334,2.061-5.76.8-7.018" transform="translate(729.128 83.468)"/>
      </g>
      <g id="Group_469" data-name="Group 469" transform="translate(0 0)">
        <path id="Path_97" data-name="Path 97" class="cls-1" d="M-513.11-135.539l1.441.173a4.24,4.24,0,0,1,2.474,1.247,4.241,4.241,0,0,1,1.248,2.474l.173,1.442c.732-.638,1.453-1.312,2.147-2.006a38.915,38.915,0,0,0,6.6-8.573c1.479-2.765,1.5-4.281,1.158-4.626a.986.986,0,0,0-.688-.189,11.829,11.829,0,0,0-4.931,1.874,38.374,38.374,0,0,0-7.613,6.037c-.7.7-1.371,1.419-2.006,2.147m5.081,5.994-.247-2.059a3.91,3.91,0,0,0-1.153-2.28,3.911,3.911,0,0,0-2.28-1.153l-2.058-.247.2-.236c.7-.814,1.448-1.622,2.227-2.4,5.876-5.876,10.861-8.008,12.779-8.008a1.27,1.27,0,0,1,.922.286c.627.627.2,2.6-1.1,5.017a39.255,39.255,0,0,1-6.655,8.651c-.774.774-1.581,1.523-2.4,2.227ZM-519-126.959a2.581,2.581,0,0,0-1.837.761,2.581,2.581,0,0,0-.76,1.837,2.581,2.581,0,0,0,.76,1.837,2.582,2.582,0,0,0,1.837.761,2.58,2.58,0,0,0,1.837-.761,2.475,2.475,0,0,0,.191-.215q-.146.008-.286.008a3.3,3.3,0,0,1-2.429-.9,1.1,1.1,0,0,1,0-1.552,1.091,1.091,0,0,1,.776-.322,1.09,1.09,0,0,1,.776.322,1.176,1.176,0,0,0,.849.256,4.112,4.112,0,0,0,.8-.091,2.582,2.582,0,0,0-.678-1.182,2.582,2.582,0,0,0-1.837-.761m0,5.527a2.911,2.911,0,0,1-2.072-.858,2.91,2.91,0,0,1-.857-2.071,2.91,2.91,0,0,1,.857-2.071,2.91,2.91,0,0,1,2.072-.858,2.911,2.911,0,0,1,2.071.858,2.91,2.91,0,0,1,.8,1.512l.03.157-.156.036c-1.018.233-1.741.16-2.12-.219a.761.761,0,0,0-.542-.224.761.761,0,0,0-.542.224.767.767,0,0,0,0,1.083,2.978,2.978,0,0,0,2.194.8,5.422,5.422,0,0,0,.6-.036l.336-.038-.175.289a2.97,2.97,0,0,1-.434.557,2.91,2.91,0,0,1-2.071.858m-28.361.111a.76.76,0,0,0-.541.225l-10.3,10.3a3.247,3.247,0,0,0-.713,1.076,3.269,3.269,0,0,0-.236,1.223,3.254,3.254,0,0,0,.237,1.223,3.224,3.224,0,0,0,.713,1.075l21.086,21.086a3.207,3.207,0,0,0,1.073.711,3.253,3.253,0,0,0,1.222.238h.007a3.252,3.252,0,0,0,1.222-.238,3.207,3.207,0,0,0,1.074-.711l24.6-24.6a5.777,5.777,0,0,0,1.24-2,6.648,6.648,0,0,0,.471-2.337,4.359,4.359,0,0,0-.031-.524l-1.579-13.166.071-.058a43.984,43.984,0,0,0,3.432-3.094,40.833,40.833,0,0,0,6.923-9.011c1.745-3.263,2.033-5.622.832-6.823a2.746,2.746,0,0,0-2.023-.73,10.981,10.981,0,0,0-4.814,1.544,40.337,40.337,0,0,0-9.03,6.908,43.855,43.855,0,0,0-3.094,3.432l-.058.071-13.166-1.579a4.324,4.324,0,0,0-.524-.031,6.636,6.636,0,0,0-2.337.47,5.8,5.8,0,0,0-2,1.241l-11.668,11.667a.769.769,0,0,0,0,1.084.765.765,0,0,0,.542.223.765.765,0,0,0,.542-.224l11.667-11.668a4.393,4.393,0,0,1,1.469-.9,5.188,5.188,0,0,1,1.771-.365h.01a2.777,2.777,0,0,1,.342.02l17.03,2.043a2.427,2.427,0,0,1,1.379.716,2.426,2.426,0,0,1,.715,1.379l.361,3.01-.075.057a26.6,26.6,0,0,1-4.167,2.661c-.248.124-.5.243-.764.355l-.179.077-.047-.189a4.447,4.447,0,0,0-1.174-2.066A4.432,4.432,0,0,0-519-128.823a4.433,4.433,0,0,0-3.155,1.307,4.467,4.467,0,0,0,0,6.31A4.432,4.432,0,0,0-519-119.9a4.432,4.432,0,0,0,3.155-1.307,4.427,4.427,0,0,0,1.229-2.322l.017-.091.087-.033a16.383,16.383,0,0,0,1.516-.669,26.651,26.651,0,0,0,3.54-2.171l.228-.163,1.471,12.265a2.814,2.814,0,0,1,.02.342,5.152,5.152,0,0,1-.366,1.781,4.412,4.412,0,0,1-.9,1.469l-24.6,24.6a1.713,1.713,0,0,1-1.215.5,1.713,1.713,0,0,1-1.216-.5l-21.085-21.085a1.713,1.713,0,0,1-.5-1.215,1.713,1.713,0,0,1,.5-1.216l10.3-10.3a.759.759,0,0,0,.224-.542.758.758,0,0,0-.224-.541.756.756,0,0,0-.541-.225m12.551,37.484h-.007a3.583,3.583,0,0,1-1.346-.262,3.536,3.536,0,0,1-1.183-.785l-21.086-21.086a3.556,3.556,0,0,1-.786-1.186,3.586,3.586,0,0,1-.261-1.347,3.6,3.6,0,0,1,.261-1.348,3.578,3.578,0,0,1,.786-1.186l10.3-10.3a1.09,1.09,0,0,1,.776-.322,1.085,1.085,0,0,1,.776.322,1.087,1.087,0,0,1,.321.775,1.088,1.088,0,0,1-.322.776l-10.295,10.3a1.383,1.383,0,0,0-.4.982,1.383,1.383,0,0,0,.4.981l21.085,21.085a1.383,1.383,0,0,0,.982.4,1.383,1.383,0,0,0,.981-.4l24.6-24.6a4.074,4.074,0,0,0,.821-1.354,4.814,4.814,0,0,0,.343-1.661,2.454,2.454,0,0,0-.017-.3l-1.4-11.711a26.515,26.515,0,0,1-3.357,2.036c-.5.251-.993.469-1.461.65a4.759,4.759,0,0,1-1.3,2.4,4.761,4.761,0,0,1-3.389,1.4,4.762,4.762,0,0,1-3.389-1.4,4.8,4.8,0,0,1,0-6.778,4.763,4.763,0,0,1,3.389-1.4,4.762,4.762,0,0,1,3.389,1.4,4.786,4.786,0,0,1,1.21,2.031c.194-.086.385-.177.572-.27a26.118,26.118,0,0,0,4.039-2.57l-.339-2.823a2.088,2.088,0,0,0-.621-1.183,2.089,2.089,0,0,0-1.183-.621l-17.031-2.043a2.46,2.46,0,0,0-.3-.017h-.01a4.844,4.844,0,0,0-1.651.343,4.056,4.056,0,0,0-1.354.821l-11.668,11.669a1.094,1.094,0,0,1-.776.321,1.1,1.1,0,0,1-.777-.32,1.1,1.1,0,0,1,0-1.553l11.668-11.667a6.124,6.124,0,0,1,2.109-1.316,6.972,6.972,0,0,1,2.457-.492,4.685,4.685,0,0,1,.565.033l12.984,1.557a44.253,44.253,0,0,1,3.059-3.386,40.681,40.681,0,0,1,9.109-6.966,11.287,11.287,0,0,1,4.969-1.583,3.063,3.063,0,0,1,2.257.827c1.314,1.314,1.047,3.809-.774,7.214a41.178,41.178,0,0,1-6.981,9.089,44.353,44.353,0,0,1-3.386,3.06l1.557,12.984a4.686,4.686,0,0,1,.033.564,6.987,6.987,0,0,1-.493,2.456,6.107,6.107,0,0,1-1.314,2.11l-24.6,24.6a3.537,3.537,0,0,1-1.185.785,3.582,3.582,0,0,1-1.345.262" transform="translate(559.477 147.787)"/>
      </g>
    </g>
  </g>
</svg>
