<svg xmlns="http://www.w3.org/2000/svg" xmlns:xlink="http://www.w3.org/1999/xlink" viewBox="0 0 57.708 59.686">
  <defs>
    <style>
      .cls-1 {
        fill: #324554;
      }

      .cls-2 {
        clip-path: url(#clip-path);
      }
    </style>
    <clipPath id="clip-path">
      <path id="Path_106" data-name="Path 106" class="cls-1" d="M0-768H57.708v59.686H0Z" transform="translate(0 768.002)"/>
    </clipPath>
  </defs>
  <g id="Group_606" data-name="Group 606" transform="translate(0 768.002)">
    <g id="Group_477" data-name="Group 477" class="cls-2" transform="translate(0 -768.002)">
      <g id="Group_474" data-name="Group 474" transform="translate(0 0)">
        <path id="Path_101" data-name="Path 101" class="cls-1" d="M-632.957-371.445a2.627,2.627,0,0,1-2.473-1.749h4.945a2.627,2.627,0,0,1-2.473,1.749m-4.768-7.577h4.273l2.448,4.079h-4.885Zm-2.227,7.577a2.627,2.627,0,0,1-2.473-1.749h4.945a2.627,2.627,0,0,1-2.473,1.749m-4.071-7.577h4.38l1.836,4.079H-642.8Zm-2.924,7.577a2.627,2.627,0,0,1-2.473-1.749h4.945a2.627,2.627,0,0,1-2.473,1.749m-3.357-7.577h4.455l1.224,4.079h-5.067Zm-19.379-1.749h-11.364v-2.738h18.877a10.139,10.139,0,0,0,4.731,1.166,10.138,10.138,0,0,0,4.731-1.166h18.877v2.738h-35.851Zm13.118,5.828v-4.079h4.493l.612,4.079Zm2.623,3.5a2.627,2.627,0,0,1-2.473-1.749h4.945a2.627,2.627,0,0,1-2.473,1.749m-4.372-3.5h-5.105l.612-4.079h4.493Zm-2.623,3.5a2.627,2.627,0,0,1-2.473-1.749h4.945a2.627,2.627,0,0,1-2.473,1.749m-4.251-3.5h-5.067l1.224-4.079h4.455Zm-2.744,3.5a2.627,2.627,0,0,1-2.473-1.749h4.945a2.627,2.627,0,0,1-2.473,1.749m-4.148-3.5h-4.992l1.836-4.079h4.38Zm-2.847,3.5a2.627,2.627,0,0,1-2.473-1.749h4.946a2.627,2.627,0,0,1-2.473,1.749m-4.063-3.5h-4.885l2.448-4.079h4.273Zm-2.932,3.5a2.627,2.627,0,0,1-2.473-1.749h4.945a2.627,2.627,0,0,1-2.473,1.749m16.03-21.1A8.462,8.462,0,0,1-657.439-401a8.462,8.462,0,0,1,8.452,8.452,8.462,8.462,0,0,1-8.452,8.452,8.462,8.462,0,0,1-8.452-8.452m37.305,18.467c0-.023,0-.045,0-.068,0-.007,0-.014,0-.021s-.006-.042-.01-.064,0-.016,0-.024-.009-.038-.015-.056l-.009-.029c-.005-.016-.011-.033-.018-.049l-.014-.034-.02-.042-.019-.036-.01-.018-3.373-5.62v-4.245a.874.874,0,0,0-.874-.874h-17.352a10.17,10.17,0,0,0,3.07-7.287,10.212,10.212,0,0,0-10.2-10.2,10.212,10.212,0,0,0-10.2,10.2,10.17,10.17,0,0,0,3.07,7.287h-17.351a.874.874,0,0,0-.874.874v4.245l-3.373,5.621-.007.013c-.009.016-.017.031-.026.048l-.015.031c-.007.015-.013.031-.019.046l-.013.036c0,.014-.009.028-.013.042s-.008.028-.011.043-.005.025-.007.038-.006.033-.007.049,0,.023,0,.034,0,.036,0,.053,0,.01,0,.015,0,.029,0,.043a.029.029,0,0,0,0,0,4.376,4.376,0,0,0,4.37,4.325,4.368,4.368,0,0,0,3.5-1.752,4.367,4.367,0,0,0,3.5,1.752,4.368,4.368,0,0,0,3.5-1.752,4.367,4.367,0,0,0,3.5,1.752,4.368,4.368,0,0,0,3.5-1.752,4.367,4.367,0,0,0,3.5,1.752,4.368,4.368,0,0,0,3.5-1.752,4.367,4.367,0,0,0,3.5,1.752,4.367,4.367,0,0,0,3.5-1.752,4.368,4.368,0,0,0,3.5,1.752,4.367,4.367,0,0,0,3.5-1.752,4.368,4.368,0,0,0,3.5,1.752,4.368,4.368,0,0,0,3.5-1.752,4.368,4.368,0,0,0,3.5,1.752,4.376,4.376,0,0,0,4.37-4.321c0-.008,0-.016,0-.025s0-.017,0-.026,0-.006,0-.009" transform="translate(686.293 402.745)"/>
      </g>
      <path id="Path_102" data-name="Path 102" class="cls-1" d="M89.307-295.744H79.4v-20.4h9.91Zm-16.322,0H51.418v-1.749H72.986Zm21.859-23.025a.874.874,0,0,0-.874.874v22.15H91.056v-21.277a.874.874,0,0,0-.874-.874H78.524a.874.874,0,0,0-.874.874v21.277H74.734v-2.624a.874.874,0,0,0-.874-.874h-.292v-.291a.874.874,0,0,0-.874-.874.874.874,0,0,0-.874.874v.291H70.071v-.291a.874.874,0,0,0-.874-.874.874.874,0,0,0-.874.874v.291H66.574v-.291a.874.874,0,0,0-.874-.874.874.874,0,0,0-.874.874v.291H63.076v-.291a.874.874,0,0,0-.874-.874.874.874,0,0,0-.874.874v.291H59.579v-.291a.874.874,0,0,0-.874-.874.874.874,0,0,0-.874.874v.291H56.082v-.291a.874.874,0,0,0-.874-.874.874.874,0,0,0-.874.874v.291H52.584v-.291a.874.874,0,0,0-.874-.874.874.874,0,0,0-.874.874v.291h-.292a.874.874,0,0,0-.874.874v2.624H46.755v-22.15a.874.874,0,0,0-.874-.874.874.874,0,0,0-.874.874v23.025a.874.874,0,0,0,.874.874H94.845a.874.874,0,0,0,.874-.874v-23.025a.874.874,0,0,0-.874-.874" transform="translate(-41.508 353.682)"/>
      <path id="Path_103" data-name="Path 103" class="cls-1" d="M128.326-294.705H106.759V-305.78h21.568Zm.874-12.824H105.884a.874.874,0,0,0-.874.874v12.824a.874.874,0,0,0,.874.874H129.2a.874.874,0,0,0,.874-.874v-12.824a.874.874,0,0,0-.874-.874" transform="translate(-96.849 343.315)"/>
      <g id="Group_475" data-name="Group 475" transform="translate(39.639 47.444)">
        <path id="Path_104" data-name="Path 104" class="cls-1" d="M-65.709,0h-4.663a.874.874,0,0,0-.874.874.874.874,0,0,0,.874.874h4.663a.874.874,0,0,0,.874-.874A.874.874,0,0,0-65.709,0" transform="translate(71.246)"/>
      </g>
      <g id="Group_476" data-name="Group 476" transform="translate(23.783 3.497)">
        <path id="Path_105" data-name="Path 105" class="cls-1" d="M-21.84-124.517l.525-5.246h5.4l.437,5.246Zm2.356-7.869a.875.875,0,0,1,.874-.874.875.875,0,0,1,.874.874v.875h-1.749Zm5.82,8.606-.577-6.93a.874.874,0,0,0-.871-.8h-.874v-.875a2.626,2.626,0,0,0-2.623-2.623,2.626,2.626,0,0,0-2.623,2.623v.875h-.874a.874.874,0,0,0-.87.787l-.7,6.995a.874.874,0,0,0,.222.674.874.874,0,0,0,.648.288h8.279a.874.874,0,0,0,.874-.874.892.892,0,0,0-.011-.138" transform="translate(23.681 135.009)"/>
      </g>
    </g>
  </g>
</svg>
